<?xml version="1.0" encoding="UTF-8" standalone="no"?>
<!-- Created with Inkscape (http://www.inkscape.org/) -->

<svg
   xmlns:dc="http://purl.org/dc/elements/1.1/"
   xmlns:cc="http://creativecommons.org/ns#"
   xmlns:rdf="http://www.w3.org/1999/02/22-rdf-syntax-ns#"
   xmlns:svg="http://www.w3.org/2000/svg"
   xmlns="http://www.w3.org/2000/svg"
   xmlns:sodipodi="http://sodipodi.sourceforge.net/DTD/sodipodi-0.dtd"
   xmlns:inkscape="http://www.inkscape.org/namespaces/inkscape"
   width="61.819168mm"
   height="61.819168mm"
   viewBox="0 0 61.819168 61.819168"
   version="1.1"
   id="svg9946"
   inkscape:version="0.92.3 (2405546, 2018-03-11)"
   sodipodi:docname="logo-big.svg">
  <defs
     id="defs9940" />
  <sodipodi:namedview
     id="base"
     pagecolor="#ffffff"
     bordercolor="#666666"
     borderopacity="1"
     inkscape:pageopacity="0"
     inkscape:pageshadow="2"
     inkscape:zoom="1.979899"
     inkscape:cx="120.67837"
     inkscape:cy="115.1355"
     inkscape:document-units="mm"
     inkscape:current-layer="layer1"
     showgrid="false"
     inkscape:window-width="1920"
     inkscape:window-height="1017"
     inkscape:window-x="-8"
     inkscape:window-y="-8"
     inkscape:window-maximized="1"
     inkscape:pagecheckerboard="true"
     fit-margin-top="0"
     fit-margin-left="0"
     fit-margin-right="0"
     fit-margin-bottom="0" />
  <metadata
     id="metadata9943">
    <rdf:RDF>
      <cc:Work
         rdf:about="">
        <dc:format>image/svg+xml</dc:format>
        <dc:type
           rdf:resource="http://purl.org/dc/dcmitype/StillImage" />
        <dc:title />
      </cc:Work>
    </rdf:RDF>
  </metadata>
  <g
     inkscape:label="Layer 1"
     inkscape:groupmode="layer"
     id="layer1"
     transform="translate(-21.459395,-85.121646)">
    <g
       id="g1643">
      <circle
         r="30.427084"
         cy="116.03123"
         cx="52.36898"
         id="path5399"
         style="opacity:1;fill:#fff6d5;fill-opacity:1;stroke:#fff6d5;stroke-width:0.96499997;stroke-miterlimit:4;stroke-dasharray:none;stroke-opacity:1" />
      <circle
         r="28.190756"
         cy="116.03123"
         cx="52.36898"
         id="path5399-7"
         style="opacity:1;fill:#fff6d5;fill-opacity:1;stroke:#010101;stroke-width:0.39399999;stroke-miterlimit:4;stroke-dasharray:3.152, 1.57600000000000007;stroke-dashoffset:0;stroke-opacity:1" />
      <g
         style="fill:#000000;fill-opacity:0.99371864"
         id="g2853"
         transform="matrix(0.26458333,0,0,0.26458333,26.999282,85.505518)">
        <g
           style="fill:#000000;fill-opacity:0.99371864"
           transform="translate(177.78685,117.1777)"
           id="g10643">
          <g
             style="fill:#000000;fill-opacity:0.99371864"
             transform="matrix(0.73872337,0,0,0.73872337,-22.210218,-14.62046)"
             id="g10700">
            <g
               style="fill:#000000;fill-opacity:0.99371864"
               id="g10671">
              <path
                 inkscape:connector-curvature="0"
                 d="m -83.541164,6.4309309 c -53.431466,0.76853 -81.827786,-13.52779 -85.599996,-27.4000009 -1.4,-5.6 3.1,-13.5 14.3,-17.6 8.4,-3.1 17.3,-4.5 22.4,-4.5 v 4.4 c -4.6,0 -13,1.3 -20.9,4.2 -8.7,3.2 -12.4,8.8 -11.5,12.4 2.3,9.400001 26.4,24.0000009 81.299996,24.0000009 h 2.6 c 21.499997,-0.2 42.599997,-3.3 59.399997,-8.8 C -4.5411666,-12.369069 2.3588334,-18.46907 3.1588334,-21.96907 c 0.5,-2.3 0.1,-4.4 -1.2,-6.3 -2.89999999,-4.2 -10.2,-7.2 -20.4000004,-8.7 l 0.6,-4.4 c 11.7000004,1.6 19.8000004,5.3 23.4000004,10.5 2,2.9 2.7,6.2 1.9,9.7 -1.4,6.4 -11.4,13.2000009 -27.6000004,18.4000009 -17.2,5.6 -38.8,8.8 -60.699997,9 -1,0.2 -1.900083,0.18849 -2.7,0.2 z"
                 id="path2801"
                 style="fill:#000000;fill-opacity:0.99371864;stroke-width:2.64566922;stroke-miterlimit:4;stroke-dasharray:none"
                 sodipodi:nodetypes="sccccccsccccccccccs" />
              <path
                 inkscape:connector-curvature="0"
                 d="m -80.941164,-8.4690691 c -26.599996,0 -66.099996,-4.5999999 -66.099996,-17.1000009 h 4.4 c 0,5.2 24,12.700001 61.699996,12.700001 37.599997,0 61.699997,-7.500001 61.699997,-12.700001 h 4.4 c 0,12.500001 -39.5,17.1000009 -66.099997,17.1000009 z"
                 id="path2803"
                 style="fill:#000000;fill-opacity:0.99371864;stroke-width:2.64566922;stroke-miterlimit:4;stroke-dasharray:none" />
              <path
                 inkscape:connector-curvature="0"
                 d="m -54.641167,-14.86907 c -9.7,0.4 -19.2,-2.4 -26.899997,-8.3 -6.1,-4.7 -11.1,-11.1 -18.799996,-13.4 -13.9,-4.2 -28,4.8 -30.9,18.8 -0.4,1.7 2.2,2.4 2.6,0.7 1.6,-7.6 6.8,-14.2 14.2,-16.7 8.8,-3 16.999996,0.2 23.699996,6 5.3,4.6 10.1,9.2 16.699997,12.1 6.2,2.700001 12.8,3.800001 19.5,3.500001 1.6,-0.1 1.6,-2.700001 -0.1,-2.700001 z"
                 id="path2805"
                 style="fill:#000000;fill-opacity:0.99371864;stroke-width:2.64566922;stroke-miterlimit:4;stroke-dasharray:none" />
              <path
                 inkscape:connector-curvature="0"
                 d="m -124.84116,-15.76907 c 2.7,-5 6,-10.8 11.7,-12.8 6,-2.1 11.4,1.4 15.999996,4.8 7,5.2 13.4,11.500001 22.299997,13.200001 1.7,0.3 2.4,-2.2 0.7,-2.6 -11.799997,-2.300001 -18.599997,-13.200001 -29.299993,-17.600001 -11.1,-4.5 -18.9,4.6 -23.6,13.5 -0.9,1.7 1.4,3 2.2,1.5 z"
                 id="path2807"
                 style="fill:#000000;fill-opacity:0.99371864;stroke-width:2.64566922;stroke-miterlimit:4;stroke-dasharray:none" />
              <path
                 inkscape:connector-curvature="0"
                 d="m -118.84116,-14.26907 c 1.9,-3.4 4,-7.4 7.9,-8.9 4.8,-1.9 8.2,1.5 11.399996,4.5 3.6,3.5 6.6,8.000001 11.7,9.3000009 1.7,0.4 2.4,-2.0999999 0.7,-2.5999999 -7.8,-2.1 -10.8,-12.700001 -18.999996,-14.500001 -7.3,-1.6 -12,5.3 -15,10.7 -0.8,1.6 1.5,3.000001 2.3,1.5 z"
                 id="path2809"
                 style="fill:#000000;fill-opacity:0.99371864;stroke-width:2.64566922;stroke-miterlimit:4;stroke-dasharray:none" />
              <path
                 inkscape:connector-curvature="0"
                 d="m -113.54116,-12.169069 c 1.8,-2.900001 5,-5.600001 8.5,-3.600001 2.2,1.3 4.3,3.100001 6.399996,4.700001 1.4,1 2.7,-1.3 1.3,-2.3 -2.899996,-2.200001 -6.599996,-6.200001 -10.599996,-5.900001 -3.4,0.2 -6.2,2.9 -7.9,5.700001 -0.8,1.6 1.5,2.9 2.3,1.4 z"
                 id="path2811"
                 style="fill:#000000;fill-opacity:0.99371864;stroke-width:2.64566922;stroke-miterlimit:4;stroke-dasharray:none" />
              <path
                 inkscape:connector-curvature="0"
                 d="m -71.741167,-14.96907 c 5.7,-2.6 9.3,-6.9 14.4,-10.2 7.7,-4.9 16.9,0.4 16.7,9.4 0,1.700001 2.6,1.700001 2.7,0 0.1,-7.2 -4.9,-13.6 -12.4,-14 -3.6,-0.2 -6.8,1.1 -9.6,3.2 -4.4,3.3 -8,7 -13.2,9.3 -1.5,0.7 -0.1,3 1.4,2.3 z"
                 id="path2813"
                 style="fill:#000000;fill-opacity:0.99371864;stroke-width:2.64566922;stroke-miterlimit:4;stroke-dasharray:none" />
              <path
                 inkscape:connector-curvature="0"
                 d="m -76.141167,-17.76907 c 7.4,-5.2 15.1,-12.1 23.7,-15.2 11.4,-4.2 20.2,5 21.3,16 0.2,1.7 2.8,1.7 2.7,0 -0.9,-9.4 -6.7,-19.2 -17.2,-19.8 -5.2,-0.3 -10.3,2.2 -14.6,4.9 -5.9,3.7 -11.5,7.9 -17.2,11.9 -1.399997,0.9 -0.1,3.2 1.3,2.2 z"
                 id="path2815"
                 style="fill:#000000;fill-opacity:0.99371864;stroke-width:2.64566922;stroke-miterlimit:4;stroke-dasharray:none" />
              <path
                 inkscape:connector-curvature="0"
                 d="m -81.841164,-21.06907 c 5.199997,-3.5 10.299997,-7.1 15.499997,-10.6 4.8,-3.3 9.6,-7.2 15.2,-9.1 7.2,-2.5 13,0.2 18.1,5.4 4.2,4.2 7.4,9.4 8,15.4 0.2,1.7 2.8,1.7 2.7,0 -1,-10.4 -10.5,-23.5 -21.6,-24.4 -6.8,-0.6 -12.8,3 -18.3,6.7 -7,4.7 -14,9.6 -20.899997,14.4 -1.4,0.8 -0.1,3.1 1.3,2.2 z"
                 id="path2817"
                 style="fill:#000000;fill-opacity:0.99371864;stroke-width:2.64566922;stroke-miterlimit:4;stroke-dasharray:none" />
              <path
                 inkscape:connector-curvature="0"
                 d="m -63.341167,-12.369069 c 2.2,-2.100001 4.7,-4.800001 7.4,-6.200001 4.2,-2.2 6.9,0.3 7.9,4.500001 0.4,1.7 2.9,1 2.6,-0.700001 -0.8,-3.6 -3,-7.5 -7.2,-7.6 -4.8,-0.1 -9.4,5.1 -12.5,8.1 -1.3,1.200001 0.5,3.100001 1.8,1.900001 z"
                 id="path2819"
                 style="fill:#000000;fill-opacity:0.99371864;stroke-width:2.64566922;stroke-miterlimit:4;stroke-dasharray:none" />
              <path
                 inkscape:connector-curvature="0"
                 d="m -144.14116,-24.66907 c -2.1,-6.2 4.6,-10.9 9.8,-12.2 5.8,-1.4 11.5,0.1 16.8,2.5 1.5,0.7 2.9,-1.6 1.3,-2.3 -6.9,-3.1 -14.6,-4.9 -21.9,-1.7 -5.5,2.4 -10.7,8.1 -8.6,14.4 0.6,1.6 3.2,0.9 2.6,-0.7 z"
                 id="path2821"
                 style="fill:#000000;fill-opacity:0.99371864;stroke-width:2.64566922;stroke-miterlimit:4;stroke-dasharray:none" />
              <path
                 inkscape:connector-curvature="0"
                 d="m -143.14116,-23.86907 c 2.5,-6.4 12.6,-9 18.6,-6.3 1.5,0.7 2.9,-1.6 1.3,-2.3 -7.8,-3.5 -19.3,-0.3 -22.5,7.9 -0.5,1.6 2,2.3 2.6,0.7 z"
                 id="path2823"
                 style="fill:#000000;fill-opacity:0.99371864;stroke-width:2.64566922;stroke-miterlimit:4;stroke-dasharray:none" />
              <path
                 inkscape:connector-curvature="0"
                 d="m -140.64116,-19.96907 c 2.4,-3.6 6.8,-4.8 10.8,-3.4 1.6,0.6 2.3,-2 0.7,-2.6 -5.1,-1.9 -10.8,0.1 -13.8,4.6 -1,1.5 1.3,2.8 2.3,1.4 z"
                 id="path2825"
                 style="fill:#000000;fill-opacity:0.99371864;stroke-width:2.64566922;stroke-miterlimit:4;stroke-dasharray:none" />
              <path
                 inkscape:connector-curvature="0"
                 d="m -130.64116,-39.56907 c -0.8,-7.7 3.2,-15.2 10.1,-18.7 7.7,-3.9 16.8,-2.4 23.699996,2.3 11,7.4 18,20.2 32.199997,22 1.7,0.2 1.7,-2.4 0,-2.7 -17.599997,-2.2 -24.699997,-23.8 -42.599993,-26.3 -14,-1.9 -27.6,8.7 -26.1,23.4 0.2,1.7 2.8,1.7 2.7,0 z"
                 id="path2827"
                 style="fill:#000000;fill-opacity:0.99371864;stroke-width:2.64566922;stroke-miterlimit:4;stroke-dasharray:none" />
              <path
                 inkscape:connector-curvature="0"
                 d="m -127.14116,-39.86907 c 1.3,-6 5.3,-11.2 11.3,-13 7,-2.1 12.9,0.6 18.299996,4.9 4.4,3.4 8.8,6.6 13.5,9.6 4.5,2.9 8.999997,6.2 14.299997,7.4 1.7,0.4 2.4,-2.2 0.7,-2.6 -7.4,-1.6 -14.399997,-7.4 -20.499997,-11.7 -5.3,-3.7 -10.2,-9 -16.699996,-10.5 -10.8,-2.5 -21.1,4.5 -23.4,15.2 -0.4,1.7 2.2,2.4 2.5,0.7 z"
                 id="path2829"
                 style="fill:#000000;fill-opacity:0.99371864;stroke-width:2.64566922;stroke-miterlimit:4;stroke-dasharray:none" />
              <path
                 inkscape:connector-curvature="0"
                 d="m -120.74116,-38.06907 c 4.7,-11.3 16.7,-5.8 23.799996,-0.7 6.1,4.4 12.4,8.4 18.999997,11.9 1.5,0.8 2.9,-1.5 1.3,-2.3 -4.999997,-2.7 -9.899997,-5.5 -14.599997,-8.7 -4.2,-2.9 -8.2,-6.3 -12.999996,-8.2 -7.8,-3.1 -15.8,-0.5 -19.1,7.4 -0.6,1.5 1.9,2.2 2.6,0.6 z"
                 id="path2831"
                 style="fill:#000000;fill-opacity:0.99371864;stroke-width:2.64566922;stroke-miterlimit:4;stroke-dasharray:none" />
              <path
                 inkscape:connector-curvature="0"
                 d="m -116.44116,-36.86907 c 2.9,-3.4 7.8,-3.5 10.4,0.2 1,1.4 3.3,0.1 2.3,-1.3 -3.6,-5 -10.6,-5.6 -14.6,-0.8 -1.1,1.3 0.8,3.2 1.9,1.9 z"
                 id="path2833"
                 style="fill:#000000;fill-opacity:0.99371864;stroke-width:2.64566922;stroke-miterlimit:4;stroke-dasharray:none" />
              <path
                 inkscape:connector-curvature="0"
                 d="m -85.941164,-48.46907 c 6.5,-5.3 16.499997,-13.4 25.299997,-13.3 10.5,0.2 16.4,9.9 19.3,18.7 0.5,1.6 3.1,0.9 2.6,-0.7 -3.1,-9.3 -9,-19 -19.6,-20.5 -10.6,-1.5 -21.799997,7.6 -29.499997,13.9 -1.3,1.1 0.5,3 1.9,1.9 z"
                 id="path2835"
                 style="fill:#000000;fill-opacity:0.99371864;stroke-width:2.64566922;stroke-miterlimit:4;stroke-dasharray:none" />
              <path
                 inkscape:connector-curvature="0"
                 d="m -83.241164,-45.26907 c 2.9,0.2 4.999997,-2.1 7.199997,-3.7 3.1,-2.1 6.2,-4.2 9.8,-5.5 3.7,-1.3 8.5,-2.1 12,0.1 3.4,2.1 5.1,6.1 6.6,9.5 0.7,1.6 3,0.2 2.3,-1.3 -2.9,-6.4 -6.6,-12.2 -14.4,-12.2 -3.6,0 -7,1.1 -10.2,2.6 -2.2,1 -4.3,2.3 -6.3,3.7 -1.8,1.2 -4.699997,4.3 -6.999997,4.2 -1.7,-0.2 -1.7,2.4 0,2.6 z"
                 id="path2837"
                 style="fill:#000000;fill-opacity:0.99371864;stroke-width:2.64566922;stroke-miterlimit:4;stroke-dasharray:none" />
              <path
                 inkscape:connector-curvature="0"
                 d="m -78.041167,-41.56907 c 3.7,-2.2 7.5,-4.2 11.6,-5.7 2.2,-0.8 5.7,-2.4 8,-1.3 1.9,0.9 3,3.1 4,4.8 0.9,1.5 3.2,0.1 2.3,-1.3 -2.1,-3.6 -4.9,-7.2 -9.5,-6.5 -6.1,1 -12.5,4.5 -17.699997,7.7 -1.5,0.9 -0.1,3.2 1.299997,2.3 z"
                 id="path2839"
                 style="fill:#000000;fill-opacity:0.99371864;stroke-width:2.64566922;stroke-miterlimit:4;stroke-dasharray:none" />
              <path
                 inkscape:connector-curvature="0"
                 d="m -72.841167,-38.16907 c 3,-1.8 12.2,-8.9 14.3,-2.6 0.5,1.6 3.1,0.9 2.6,-0.7 -3,-8.9 -13.5,-1.8 -18.3,1 -1.4,0.9 0,3.2 1.4,2.3 z"
                 id="path2841"
                 style="fill:#000000;fill-opacity:0.99371864;stroke-width:2.64566922;stroke-miterlimit:4;stroke-dasharray:none" />
              <path
                 sodipodi:nodetypes="cscccc"
                 inkscape:connector-curvature="0"
                 d="m -105.24116,-60.46907 c 5.763187,-6.59499 13.503211,-7.400679 21.122707,-5.667977 5.204845,1.183601 10.353449,3.551665 14.777286,6.067977 1.5,0.8 2.8,-1.4 1.3,-2.3 -11.899997,-6.8 -28.499997,-11.9 -39.099993,0.1 -1.1,1.2 0.8,3 1.9,1.8 z"
                 id="path2843"
                 style="fill:#000000;fill-opacity:0.99371864;stroke-width:2.64566922;stroke-miterlimit:4;stroke-dasharray:none" />
              <path
                 inkscape:connector-curvature="0"
                 d="m -98.141164,-59.26907 c 7,-3.2 14.7,-2.6 21.199997,1.4 1.5,0.9 2.8,-1.4 1.3,-2.3 -7.399997,-4.6 -15.999997,-5 -23.899997,-1.4 -1.499996,0.7 -0.1,3 1.4,2.3 z"
                 id="path2845"
                 style="fill:#000000;fill-opacity:0.99371864;stroke-width:2.64566922;stroke-miterlimit:4;stroke-dasharray:none" />
              <path
                 inkscape:connector-curvature="0"
                 d="m -93.541164,-55.06907 c 3,-0.7 6.1,-0.3 8.8,1.2 1.5,0.8 2.9,-1.5 1.3,-2.3 -3.4,-1.8 -7.1,-2.3 -10.9,-1.4 -1.6,0.3 -0.8,2.8 0.8,2.5 z"
                 id="path2847"
                 style="fill:#000000;fill-opacity:0.99371864;stroke-width:2.64566922;stroke-miterlimit:4;stroke-dasharray:none" />
              <path
                 inkscape:connector-curvature="0"
                 d="m -41.641167,-49.86907 c 6.9,-1.4 14.4,1.2 19.2,6.4 4.6,5 5.6,12.6 5,19.2 -0.1,1.7 2.5,1.7 2.7,0 0.6,-7.7 -0.9,-16.4 -6.7,-21.9 -5.6,-5.3 -13.3,-7.7 -20.9,-6.2 -1.7,0.2 -1,2.8 0.7,2.5 z"
                 id="path2849"
                 style="fill:#000000;fill-opacity:0.99371864;stroke-width:2.64566922;stroke-miterlimit:4;stroke-dasharray:none" />
              <path
                 inkscape:connector-curvature="0"
                 d="m -39.541167,-44.66907 c 12.3,-2.1 18,12.3 19.5,21.9 0.3,1.7 2.8,1 2.6,-0.7 -1.8,-11.4 -8.9,-26.2 -22.8,-23.8 -1.7,0.4 -1,2.9 0.7,2.6 z"
                 id="path2851"
                 style="fill:#000000;fill-opacity:0.99371864;stroke-width:2.64566922;stroke-miterlimit:4;stroke-dasharray:none" />
            </g>
          </g>
        </g>
      </g>
      <text
         id="text10708"
         y="123.93555"
         x="52.18811"
         style="font-style:normal;font-variant:normal;font-weight:normal;font-stretch:normal;font-size:9.87777805px;line-height:0.89999998;font-family:'Century Gothic';-inkscape-font-specification:'Century Gothic';text-align:center;letter-spacing:0px;word-spacing:0px;text-anchor:middle;fill:#000000;fill-opacity:0.99371864;stroke:none;stroke-width:0.26458332"
         xml:space="preserve"><tspan
           style="font-style:normal;font-variant:normal;font-weight:bold;font-stretch:normal;font-size:9.87777805px;line-height:0.89999998;font-family:'Century Gothic';-inkscape-font-specification:'Century Gothic';text-align:center;text-anchor:middle;fill:#000000;fill-opacity:0.99371864;stroke-width:0.26458332"
           y="123.93555"
           x="52.18811"
           id="tspan10706"
           sodipodi:role="line">PASTA</tspan><tspan
           id="tspan10710"
           style="font-style:normal;font-variant:normal;font-weight:bold;font-stretch:normal;font-size:9.87777805px;line-height:0.89999998;font-family:'Century Gothic';-inkscape-font-specification:'Century Gothic';text-align:center;text-anchor:middle;fill:#000000;fill-opacity:0.99371864;stroke-width:0.26458332"
           y="132.82555"
           x="52.18811"
           sodipodi:role="line">HOUSE</tspan></text>
    </g>
  </g>
</svg>
